<svg height="125" viewBox="0 0 226 125" width="226" xmlns="http://www.w3.org/2000/svg">
  <g fill="none" fill-rule="evenodd">
    <path d="m0 0h226v125h-226z" fill="transparent" />
    <path fill="currentColor"
      d="m43.057 101.432c.197 0 .344.063.443.189.098.127.133.289.106.486l-2.067 14.802c-.056.45-.084.759-.084.928 0 2.39 1.208 3.584 3.627 3.584 1.18 0 2.368-.323 3.563-.97 1.195-.646 2.481-1.574 3.859-2.783l2.235-15.73c.028-.197.091-.33.19-.401.098-.069.259-.105.485-.105h2.319c.197 0 .352.063.464.189.112.127.154.289.127.486l-3.037 21.254c-.056.169-.105.281-.147.338-.042.056-.148.084-.317.084h-2.446c-.337 0-.492-.154-.463-.464l.337-2.362v-.126c0-.112-.028-.169-.084-.169-.085 0-.197.057-.338.169-1.659 1.265-3.099 2.144-4.322 2.636-1.223.491-2.44.738-3.648.738-1.8 0-3.255-.506-4.365-1.519-1.111-1.012-1.666-2.347-1.666-4.006 0-.449.014-.787.042-1.012l2.235-15.688c.028-.225.085-.372.169-.443.084-.069.225-.105.422-.105zm29.183-.422c1.883 0 3.507.366 4.871 1.097 1.363.731 2.383 1.729 3.058 2.994.056.113.084.197.084.253 0 .141-.084.253-.253.337l-1.603.801c-.056.029-.126.042-.211.042-.168 0-.323-.111-.463-.337-.506-.843-1.231-1.503-2.172-1.982-.943-.477-2.088-.717-3.437-.717-1.462 0-2.819.345-4.07 1.034s-1.877 1.651-1.877 2.888c0 .591.218 1.111.654 1.561.436.449 1.216.843 2.341 1.18l5.102 1.561c1.603.45 2.805 1.139 3.606 2.066.801.928 1.202 1.997 1.202 3.205 0 1.519-.485 2.826-1.455 3.922-.97 1.097-2.207 1.919-3.711 2.467s-3.057.823-4.66.823c-2.25 0-4.168-.443-5.756-1.329-1.589-.885-2.651-2.045-3.184-3.479-.057-.169-.085-.267-.085-.295 0-.14.085-.253.253-.338l1.645-.843c.169-.056.267-.084.295-.084.169 0 .309.098.422.295 1.124 2.334 3.261 3.5 6.41 3.5.899 0 1.841-.126 2.826-.379.983-.253 1.834-.682 2.551-1.286.717-.605 1.075-1.385 1.075-2.341 0-1.405-1.237-2.46-3.711-3.163l-4.175-1.181c-1.771-.506-3.051-1.166-3.837-1.982-.788-.815-1.181-1.813-1.181-2.994 0-1.49.435-2.79 1.307-3.901.871-1.11 2.031-1.954 3.479-2.53s3.001-.865 4.66-.865zm23.49 0c2.755 0 4.919.809 6.494 2.425 1.574 1.617 2.362 3.873 2.362 6.768 0 .872-.057 1.687-.169 2.447-.076364.434545-.327107.670744-.752231.710098l-.132769.005902h-15.984c-.225 0-.379.142-.464.422-.084.282-.126.774-.126 1.476 0 1.884.583 3.395 1.75 4.534 1.166 1.138 2.663 1.708 4.491 1.708 2.896 0 5.272-1.181 7.127-3.543.112-.112.225-.168.338-.168.084 0 .168562.023625.252844.070875l.084156.055125 1.603.885c.309.198.365.437.168.718-1.377 1.659-2.861 2.853-4.449 3.584s-3.423 1.097-5.503 1.097c-1.884 0-3.529-.394-4.934-1.181-1.406-.787-2.496-1.898-3.269-3.332-.773-1.433-1.159-3.092-1.159-4.976 0-2.333.506-4.555 1.518-6.663 1.012-2.109 2.446-3.81 4.301-5.103 1.856-1.293 4.007-1.94 6.453-1.94zm17.838.422c.197 0 .344.063.443.189.098.127.133.289.105.486l-2.066 14.802c-.057.45-.084.759-.084.928 0 2.39 1.208 3.584 3.626 3.584 1.181 0 2.369-.323 3.564-.97 1.195-.646 2.481-1.574 3.859-2.783l2.235-15.73c.027-.197.091-.33.19-.401.098-.069.259-.105.485-.105h2.319c.196 0 .351.063.464.189.112.127.154.289.126.486l-3.036 21.254c-.057.169-.105.281-.148.338-.042.056-.147.084-.316.084h-2.446c-.337 0-.492-.154-.464-.464l.338-2.362v-.126c0-.112-.029-.169-.085-.169-.084 0-.197.057-.337.169-1.659 1.265-3.1 2.144-4.323 2.636-1.223.491-2.439.738-3.648.738-1.799 0-3.254-.506-4.364-1.519-1.111-1.012-1.666-2.347-1.666-4.006 0-.449.014-.787.042-1.012l2.235-15.688c.028-.225.084-.372.169-.443.084-.069.225-.105.422-.105zm-104.669-8.941c.309 0 .506.155.59.464l6.031 24.207c.027.225.098.337.21.337s.239-.14.38-.422l12.82-24.122c.085-.196.169-.323.253-.38.085-.055.211-.084.38-.084h4.344c.309 0 .435.169.379.506l-4.217 30.238c-.028.225-.084.373-.169.443-.084.07-.239.105-.464.105h-2.825c-.479 0-.675-.225-.591-.675l3.332-23.785c.028-.14.021-.211-.021-.211s-.092.057-.148.169l-12.693 24.038c-.085.197-.176.323-.275.38-.098.056-.26.084-.485.084h-2.235c-.197 0-.337-.042-.421-.126-.085-.085-.155-.239-.211-.464l-5.736-23.743c-.028-.141-.077-.218-.147-.232-.071-.014-.12.049-.148.19l-3.374 23.953c-.028.169-.077.281-.147.338-.071.056-.204.084-.401.084h-2.488c-.281 0-.422-.112-.422-.337 0-.141.014-.267.042-.38l4.26-30.111c.027-.224.063-.358.105-.401.042-.042.162-.063.359-.063zm151.944 8.519c1.827 0 3.24.479 4.238 1.434.998.956 1.497 2.25 1.497 3.88 0 .253-.028.661-.084 1.223l-2.235 15.688c-.029.225-.085.373-.169.443s-.225.105-.422.105h-2.404c-.197 0-.337-.063-.421-.19-.085-.126-.113-.288-.085-.485l2.109-14.929c.056-.562.084-.955.084-1.181 0-2.136-1.138-3.205-3.416-3.205-1.153 0-2.256.282-3.31.844-1.054.563-2.102 1.265-3.142 2.108-.281.226-.492.43-.633.612-.141.183-.225.401-.253.654l-2.15 15.224c-.029.197-.085.337-.169.422-.084.084-.225.126-.422.126h-2.361c-.169 0-.31-.063-.422-.19-.113-.126-.155-.288-.127-.485l2.109-15.013c.056-.506.084-.871.084-1.097 0-2.136-1.124-3.205-3.373-3.205-1.154 0-2.243.268-3.269.802s-2.34 1.434-3.943 2.699l-2.277 15.983c-.028.197-.092.331-.19.401-.099.07-.26.105-.485.105h-2.277c-.45 0-.647-.225-.591-.675l2.995-21.255c.027-.168.07-.28.126-.337.056-.056.154-.084.295-.084h2.615c.309 0 .436.168.38.506l-.296 2.151c-.028.141-.021.232.021.274.043.042.12.021.232-.063 1.687-1.153 3.1-1.989 4.239-2.51 1.138-.52 2.354-.78 3.648-.78 1.602 0 2.867.358 3.795 1.075.928.718 1.49 1.61 1.687 2.678 0 .057.028.085.084.085.112 0 .323-.127.633-.38 1.687-1.208 3.134-2.087 4.344-2.636 1.208-.548 2.446-.822 3.711-.822zm-65.155 2.53c-1.463 0-2.784.359-3.965 1.076-1.18.717-2.129 1.659-2.846 2.825-.6453 1.0503-1.06866 2.15244-1.27008 3.304233l-.05892.385767h12.778c.309 0 .541-.133.696-.4.154-.267.232-.766.232-1.497 0-1.687-.499-3.058-1.497-4.112s-2.355-1.582-4.069-1.582zm-38.1525-47.2274c2.279 0 4.302.422 6.067 1.265 1.764.843 3.037 1.905 3.818 3.185.187.251.281.469.281.656 0 .188-.11.344-.328.469l-3.373 1.64c-.094.063-.219.093-.375.093-.281 0-.515-.124-.703-.375-1.281-1.686-3.108-2.529-5.481-2.529-1.187 0-2.171.227-2.952.679-.781.453-1.171 1.07-1.171 1.85 0 .438.179.836.539 1.195.359.36 1.054.664 2.085.914l5.387 1.311c2.467.594 4.279 1.539 5.435 2.835 1.155 1.296 1.733 2.819 1.733 4.568 0 2.467-1.03 4.42-3.092 5.856-2.061 1.437-4.763 2.155-8.105 2.155-2.686 0-5.013-.476-6.98-1.429-1.968-.953-3.358-2.194-4.17-3.724-.156-.219-.234-.422-.234-.609 0-.219.109-.375.328-.469l3.186-1.64c.249-.124.468-.187.656-.187.187 0 .358.078.515.234.687.968 1.522 1.741 2.506 2.319.984.579 2.288.867 3.912.867 1.468 0 2.663-.218 3.584-.656.921-.437 1.382-1.078 1.382-1.921 0-.562-.234-1.031-.702-1.405-.469-.375-1.265-.703-2.39-.984l-4.825-1.031c-4.748-1.031-7.121-3.389-7.121-7.074 0-1.562.429-2.952 1.288-4.17s2.085-2.17 3.678-2.858c1.593-.686 3.466-1.03 5.622-1.03zm104.7065 0c2.28 0 4.302.422 6.067 1.265 1.764.843 3.037 1.905 3.818 3.185.188.251.281.469.281.656 0 .188-.109.344-.327.469l-3.374 1.64c-.093.063-.218.093-.374.093-.282 0-.516-.124-.703-.375-1.281-1.686-3.108-2.529-5.482-2.529-1.187 0-2.171.227-2.951.679-.781.453-1.171 1.07-1.171 1.85 0 .438.179.836.538 1.195.359.36 1.055.664 2.085.914l5.388 1.311c2.467.594 4.279 1.539 5.435 2.835 1.155 1.296 1.733 2.819 1.733 4.568 0 2.467-1.031 4.42-3.092 5.856-2.062 1.437-4.763 2.155-8.105 2.155-2.687 0-5.013-.476-6.981-1.429-1.967-.953-3.357-2.194-4.169-3.724-.157-.219-.234-.422-.234-.609 0-.219.109-.375.327-.469l3.186-1.64c.25-.124.469-.187.656-.187.188 0 .359.078.515.234.687.968 1.523 1.741 2.507 2.319.984.579 2.287.867 3.912.867 1.468 0 2.662-.218 3.584-.656.921-.437 1.382-1.078 1.382-1.921 0-.562-.234-1.031-.703-1.405-.468-.375-1.265-.703-2.389-.984l-4.826-1.031c-4.748-1.031-7.121-3.389-7.121-7.074 0-1.562.429-2.952 1.289-4.17.858-1.218 2.084-2.17 3.677-2.858 1.593-.686 3.467-1.03 5.622-1.03zm26.236 0c2.779 0 5.083.695 6.91 2.085s3.053 3.068 3.678 5.036c.062.25.093.406.093.469 0 .28-.218.453-.655.515l-4.92.468h-.14c-.281 0-.469-.171-.562-.515-.563-1.125-1.133-1.96-1.71-2.507-.579-.546-1.399-.819-2.46-.819-1.687 0-3.006.687-3.959 2.061-.953 1.375-1.429 3.404-1.429 6.091 0 2.748.508 4.81 1.523 6.184s2.428 2.061 4.24 2.061c1.28 0 2.326-.328 3.139-.984.812-.656 1.608-1.655 2.389-2.998.094-.157.195-.242.305-.258.109-.015.273-.007.491.023l3.467.797c.281.031.422.187.422.468l-.094.422c-.625 1.812-1.835 3.459-3.631 4.943-1.796 1.483-4.162 2.225-7.097 2.225-2.406 0-4.553-.539-6.442-1.616-1.89-1.078-3.366-2.584-4.427-4.521-1.062-1.936-1.593-4.154-1.593-6.653 0-2.53.539-4.779 1.616-6.746 1.078-1.968 2.561-3.498 4.451-4.592 1.889-1.092 4.021-1.639 6.395-1.639zm-85.125 0c2.467 0 4.653.554 6.559 1.663 1.905 1.109 3.38 2.647 4.427 4.615 1.046 1.967 1.57 4.201 1.57 6.699 0 2.468-.532 4.67-1.593 6.606-1.063 1.937-2.546 3.451-4.451 4.544-1.906 1.094-4.092 1.64-6.559 1.64-2.468 0-4.6455-.539-6.5345-1.616-1.891-1.078-3.366-2.584-4.428-4.521-1.062-1.936-1.593-4.139-1.593-6.606 0-2.561.539-4.826 1.617-6.793 1.077-1.968 2.576-3.498 4.497-4.592 1.921-1.092 4.0825-1.639 6.4885-1.639zm-21.5495-7.965c.218 0 .398.079.538.235.141.156.211.374.211.656v7.027c0 .312.156.469.469.469h4.919c.562 0 .843.25.843.749v3.467c0 .531-.313.796-.937.796h-4.966c-.344 0-.515.188-.515.562v11.291c0 1.062.249 1.82.749 2.272.5.453 1.296.68 2.39.68h2.529c.219 0 .391.07.516.21.124.141.187.336.187.586l-.047 2.858c0 .625-.344 1-1.03 1.124-1.312.188-3.171.282-5.575.282-2.187 0-3.889-.516-5.107-1.547-1.218-1.03-1.827-2.53-1.827-4.497v-13.118c0-.468-.204-.703-.609-.703h-2.858c-.594 0-.89-.265-.89-.796v-3.467c0-.469.281-.703.843-.703h3.233c.249 0 .405-.171.468-.515l.656-7.121c.062-.531.297-.797.703-.797zm-40.103 8.433c.468 0 .702.266.702.797v22.909c0 .406-.093.695-.281.867-.187.172-.515.258-.984.258h-4.919c-.375 0-.64-.078-.796-.235-.157-.156-.235-.406-.235-.749v-22.957c0-.593.265-.89.797-.89zm167.6715-9.932c.469 0 .703.266.703.797v11.993c0 .25.078.375.234.375.094 0 .203-.063.328-.188 1.436-1.28 2.772-2.185 4.006-2.717 1.233-.531 2.537-.796 3.912-.796 2.373 0 4.2.655 5.481 1.968 1.28 1.311 1.921 3.154 1.921 5.528v16.678c0 .75-.375 1.125-1.124 1.125h-5.201c-.344 0-.578-.071-.702-.211-.126-.141-.188-.383-.188-.726v-15.836c0-1.061-.289-1.881-.866-2.459-.579-.578-1.414-.867-2.507-.867-.968 0-1.843.234-2.624.703-.781.468-1.624 1.203-2.529 2.202v16.116c0 .374-.094.648-.281.82-.188.172-.5.258-.937.258h-5.013c-.344 0-.594-.071-.75-.211-.157-.141-.234-.383-.234-.726v-32.936c0-.593.249-.89.749-.89zm-74.818 9.464c1.125 0 1.687.265 1.687.796v5.435c0 .218-.063.391-.187.515-.126.125-.298.157-.516.094-1-.25-2.093-.375-3.279-.375-.781 0-1.57.195-2.366.586s-1.452.906-1.968 1.545c-.515.641-.773 1.289-.773 1.945v13.68c0 .719-.406 1.078-1.218 1.078h-5.013c-.656 0-.984-.312-.984-.937v-23.004c0-.593.25-.89.75-.89h5.481c.5 0 .75.266.75.797v2.764c0 .125.031.219.094.281.062.063.124.094.187.094.094 0 .218-.078.375-.235.937-1.248 2.045-2.256 3.326-3.021s2.499-1.148 3.654-1.148zm-126.3975-9.464c.499 0 .749.281.749.844v11.993c0 .532.235.796.703.796h10.822c.5 0 .75-.249.75-.749v-12.04c0-.563.234-.844.703-.844h6.699c.531 0 .797.297.797.89v32.889c0 .655-.345.984-1.031.984h-5.95c-.438 0-.75-.078-.937-.235-.187-.156-.281-.437-.281-.843v-13.165c0-.187-.055-.335-.164-.445-.11-.109-.274-.164-.492-.164h-11.01c-.187 0-.336.063-.445.187-.109.125-.164.266-.164.422v13.165c0 .374-.101.648-.304.82-.204.172-.524.258-.961.258h-5.903c-.374 0-.64-.078-.796-.235-.157-.156-.234-.406-.234-.749v-32.889c0-.593.249-.89.749-.89zm138.2505 9.932c.469 0 .703.266.703.797v22.909c0 .406-.094.695-.281.867-.188.172-.516.258-.984.258h-4.919c-.375 0-.641-.078-.797-.235-.156-.156-.234-.406-.234-.749v-22.957c0-.593.265-.89.796-.89zm-43.054 4.17c-1.718 0-3.03.695-3.9345 2.084-.907 1.391-1.359 3.444-1.359 6.162 0 2.654.452 4.669 1.359 6.043.9045 1.374 2.2165 2.062 3.9345 2.062 1.717 0 3.022-.68 3.912-2.039.89-1.358 1.335-3.38 1.335-6.066 0-2.718-.445-4.771-1.335-6.162-.89-1.389-2.195-2.084-3.912-2.084zm-61.6065-14.102c.219 0 .399.078.539.234.141.157.211.375.211.656v4.873c0 .781-.422 1.171-1.265 1.171h-5.06c-.374 0-.64-.086-.796-.258-.157-.171-.234-.445-.234-.82v-4.919c0-.624.265-.937.796-.937zm104.7075 0c.218 0 .398.078.539.234.14.157.211.375.211.656v4.873c0 .781-.422 1.171-1.265 1.171h-5.06c-.375 0-.641-.086-.797-.258-.156-.171-.234-.445-.234-.82v-4.919c0-.624.265-.937.797-.937zm-33.404-37.9946c.579429 0 .890699.29747449.93221.88922085l.00479.14177915v3.186c0 .875-.359 1.234-1.078 1.077-.468-.093-.921-.14-1.358-.14-.251 0-.532.031-.844.093-.812.126-1.124.485-.937 1.078.282.843.422 1.546.422 2.108 0 1.437-.43 2.734-1.288 3.889-.86 1.156-2.14 2.077-3.842 2.764-1.703.6865-3.756 1.0305-6.1605 1.0305-1.749 0-3.037.14-3.865.421s-1.241.656-1.241 1.124c0 .407.226.696.679.867.4118182.1572727 1.074876.2682645 1.9899249.3337265l.2820751.0182735 6.6995.375c3.092.187 5.395.874 6.91 2.061s2.272 2.764 2.272 4.732c0 2.436-1.156 4.387-3.467 5.856-2.311 1.467-5.591 2.202-9.8375 2.202-9.089 0-13.633-2.015-13.633-6.044 0-1 .39-1.85 1.171-2.553.78-.703 1.89-1.319 3.326-1.85.188-.063.282-.141.282-.235s-.094-.187-.282-.281c-1.811-.874-2.717-2.03-2.717-3.467 0-.843.414-1.632 1.242-2.366.827-.733 1.928-1.366 3.303-1.897.374-.1875.405-.3745.093-.5615-3.03-1.406-4.544-3.529-4.544-6.372 0-2.373 1.023-4.263 3.069-5.669 2.045-1.405 4.973-2.108 8.784-2.108 3.2155 0 5.7145.703 7.4955 2.108.218.157.421.235.609.235.249 0 .468-.11.656-.328.593-.719 1.374-1.351 2.342-1.898.968-.546 1.811-.82 2.53-.82zm-20.2615 25.1815c-.766.515-1.148 1.163-1.148 1.944 0 1.156.64 2.03 1.921 2.624 1.28.593 3.357.89 6.231.89 2.0915 0 3.7005-.289 4.8245-.867s1.687-1.398 1.687-2.459c0-.719-.313-1.297-.937-1.734-.573833-.4005833-1.394708-.6440347-2.465706-.7303542l-.298294-.0196458-7.2145-.327c-.969-.063-1.835.164-2.6.679zm-46.638-24.5715c3.717 0 6.402.679 8.058 2.037 1.5830435 1.299913 2.4094367 3.1213384 2.4783044 5.4634008l.0046956.3225992v16.4435c0 .375-.063.641-.187.797-.1071429.1337143-.295102.2101224-.5626181.2292245l-.1403819.0047755h-4.825c-.313 0-.539-.109-.68-.328-.12-.1868571-.2120816-.4545306-.2749854-.8023907l-.0290146-.1806093-.047-1.031c-.031-.281-.157-.422-.375-.422-.125 0-.359.125-.703.375-2.061 1.905-4.513 2.858-7.355 2.858-2.342 0-4.201-.633-5.575-1.898-1.375-1.265-2.061-2.912-2.061-4.943 0-2.623 1.202-4.7305 3.607-6.3235 2.3088-1.52928 5.4525696-2.36736 9.4304241-2.5151247l.5015759-.0148753 1.687-.141c.187 0 .351-.054.492-.163.112-.088.1792-.21056.2016-.36768l.0084-.12432v-.984c0-1.218-.344-2.155-1.03-2.811-.688-.656-1.671-.984-2.952-.984-2.186 0-3.811.937-4.872 2.811-.125.312-.328.469-.609.469-.1046667 0-.2017778-.0071111-.2919259-.021037l-.1300741-.025963-4.685-1.078c-.281-.062-.421-.234-.421-.515 0-.188.062-.422.187-.703.75-1.811 2.085-3.17 4.006-4.076s4.302-1.358 7.144-1.358zm26.376 0c3.716 0 6.402.679 8.058 2.037 1.5830435 1.299913 2.4094367 3.1213384 2.4783044 5.4634008l.0046956.3225992v16.4435c0 .375-.063.641-.187.797-.108.1337143-.2953469.2101224-.5626706.2292245l-.1403294.0047755h-4.826c-.312 0-.538-.109-.679-.328-.1208571-.1868571-.2123265-.4545306-.2756676-.8023907l-.0293324-.1806093-.046-1.031c-.032-.281-.157-.422-.375-.422-.125 0-.36.125-.703.375-2.061 1.905-4.514 2.858-7.355 2.858-2.343 0-4.201-.633-5.575-1.898-1.375-1.265-2.062-2.912-2.062-4.943 0-2.623 1.202-4.7305 3.608-6.3235 2.30784-1.52928 5.4515712-2.36736 9.4303089-2.5151247l.5016911-.0148753 1.686-.141c.188 0 .352-.054.492-.163.1175-.0916667.1856944-.2208333.205162-.3875l.005838-.1045v-.984c0-1.218-.344-2.155-1.031-2.811s-1.671-.984-2.951-.984c-2.187 0-3.811.937-4.872 2.811-.126.312-.328.469-.609.469-.1046667 0-.2022222-.0071111-.2923704-.021037l-.1296296-.025963-4.685-1.078c-.281-.062-.422-.234-.422-.515 0-.188.063-.422.188-.703.749-1.811 2.084-3.17 4.005-4.076s4.302-1.358 7.145-1.358zm54.9995 0c2.28 0 4.302.421 6.067 1.264 1.764.844 3.037 1.906 3.818 3.186.188.25.282.469.282.656 0 .188-.11.344-.328.468l-3.374 1.64c-.093.063-.218.094-.374.094-.281 0-.516-.125-.703-.375-1.281-1.686-3.108-2.529-5.481-2.529-1.188 0-2.172.226-2.952.679-.781.453-1.171 1.07-1.171 1.85 0 .438.179.836.539 1.195.358.359 1.054.664 2.084.913l5.388 1.312c2.467.594 4.279 1.539 5.435 2.835 1.155 1.296 1.733 2.8185 1.733 4.5675 0 2.467-1.031 4.42-3.092 5.856-2.061 1.437-4.763 2.155-8.105 2.155-2.687 0-5.013-.476-6.981-1.429-1.967-.953-3.357-2.194-4.169-3.725-.157-.218-.234-.421-.234-.609 0-.218.109-.374.328-.468l3.185-1.64c.25-.124.469-.187.656-.187.188 0 .359.078.516.234.686.968 1.522 1.741 2.506 2.319s2.288.867 3.912.867c1.468 0 2.662-.219 3.584-.656.921-.437 1.382-1.078 1.382-1.921 0-.563-.234-1.031-.703-1.406-.468-.374-1.265-.702-2.389-.984l-4.826-1.03c-4.748-1.0305-7.121-3.3885-7.121-7.0745 0-1.561.429-2.951 1.289-4.169.858-1.218 2.084-2.17 3.677-2.858 1.593-.687 3.467-1.03 5.622-1.03zm-119.3695-9.464c.499 0 .749.281.749.843v11.994c0 .531.235.796.703.796h10.822c.5 0 .75-.249.75-.749v-12.041c0-.562.234-.843.703-.843h6.699c.531 0 .797.297.797.89v32.8875c0 .656-.345.984-1.031.984h-5.95c-.438 0-.75-.078-.937-.234s-.281-.437-.281-.844v-13.1635c0-.188-.055-.336-.164-.445-.11-.109-.274-.164-.492-.164h-11.01c-.187 0-.336.063-.445.187-.109.125-.164.266-.164.422v13.1635c0 .375-.101.649-.304.82-.204.173-.524.258-.961.258h-5.903c-.374 0-.64-.078-.796-.234-.157-.156-.234-.406-.234-.75v-32.8875c0-.593.249-.89.749-.89zm40.946 22.909-1.312.094c-1.812.094-3.413.523-4.802 1.2875-1.39.766-2.085 1.82-2.085 3.162 0 .937.328 1.68.984 2.226.656.547 1.561.82 2.717.82 1.436 0 2.654-.422 3.654-1.265.9622667-.7578667 1.47504-1.5296711 1.539133-2.3146003l.006867-.1683997v-3.0445c0-.281-.046-.484-.14-.609s-.281-.188-.562-.188zm26.375 0-1.311.094c-1.812.094-3.413.523-4.803 1.2875-1.39.766-2.084 1.82-2.084 3.162 0 .937.328 1.68.984 2.226.655.547 1.561.82 2.717.82 1.436 0 2.654-.422 3.654-1.265.9622667-.7578667 1.47504-1.5296711 1.539133-2.3146003l.006867-.1683997v-3.0445c0-.281-.047-.484-.14-.609-.094-.125-.282-.188-.563-.188zm23.378-9.745c-1.5 0-2.679.392-3.538 1.172-.859.781-1.288 1.812-1.288 3.092 0 1.187.429 2.148 1.288 2.881.859.734 2.038 1.101 3.538 1.101 1.5915 0 2.7865-.367 3.5835-1.101.796-.733 1.194-1.694 1.194-2.881 0-1.312-.398-2.35-1.194-3.116-.797-.765-1.992-1.148-3.5835-1.148z" />
  </g>
</svg>