<?xml version="1.0" encoding="UTF-8"?>
<!DOCTYPE svg PUBLIC "-//W3C//DTD SVG 1.1//EN" "http://www.w3.org/Graphics/SVG/1.1/DTD/svg11.dtd">
<svg xmlns="http://www.w3.org/2000/svg" version="1.1" width="192px" height="192px"
        style="shape-rendering:geometricPrecision; text-rendering:geometricPrecision; image-rendering:optimizeQuality; fill-rule:evenodd; clip-rule:evenodd"
        xmlns:xlink="http://www.w3.org/1999/xlink">
        <g>
                <path style="opacity:0.981" fill="#03aeef"
                        d="M -0.5,-0.5 C 31.1667,-0.5 62.8333,-0.5 94.5,-0.5C 95.0283,0.72065 95.695,1.88732 96.5,3C 95.451,3.49224 94.451,3.32557 93.5,2.5C 92.6433,3.73569 91.9766,5.06902 91.5,6.5C 93.9166,8.49351 93.9166,10.3268 91.5,12C 92.1667,12.3333 92.8333,12.6667 93.5,13C 93.2716,13.3988 92.9382,13.5654 92.5,13.5C 91.5,13.5 90.5,13.5 89.5,13.5C 89.6495,14.552 89.4828,15.552 89,16.5C 85.7943,20.2814 82.1276,23.6148 78,26.5C 77.6667,28.1667 77.3333,29.8333 77,31.5C 74.6667,33.9132 72.3333,36.2465 70,38.5C 69.5172,39.448 69.3505,40.448 69.5,41.5C 68.1667,41.5 66.8333,41.5 65.5,41.5C 64.403,45.1233 62.2363,48.1233 59,50.5C 57.2479,54.3584 55.4146,58.0251 53.5,61.5C 50.5,61.1667 49.1667,62.5 49.5,65.5C 45.3017,68.2178 41.4684,71.5512 38,75.5C 37.7978,77.2556 37.2978,78.9223 36.5,80.5C 34.5679,81.1455 33.4012,82.4788 33,84.5C 31.9887,85.3366 30.8221,85.67 29.5,85.5C 29.6495,86.552 29.4828,87.552 29,88.5C 25.7943,92.2814 22.1276,95.6148 18,98.5C 17.6667,100.167 17.3333,101.833 17,103.5C 14.6667,105.913 12.3333,108.246 10,110.5C 9.51722,111.448 9.35055,112.448 9.5,113.5C 8.16667,113.5 6.83333,113.5 5.5,113.5C 5.5,114.833 5.5,116.167 5.5,117.5C 3.5,117.833 1.5,118.167 -0.5,118.5C -0.5,78.8333 -0.5,39.1667 -0.5,-0.5 Z" />
        </g>
        <g>
                <path style="opacity:0.965" fill="#04adef"
                        d="M 94.5,-0.5 C 126.833,-0.5 159.167,-0.5 191.5,-0.5C 191.5,2.83333 191.5,6.16667 191.5,9.5C 189.974,10.1047 188.974,11.2714 188.5,13C 187.552,13.4828 186.552,13.6495 185.5,13.5C 185.649,14.552 185.483,15.552 185,16.5C 181.794,20.2814 178.128,23.6148 174,26.5C 173.667,28.1667 173.333,29.8333 173,31.5C 170.667,33.9132 168.333,36.2465 166,38.5C 165.517,39.448 165.351,40.448 165.5,41.5C 164.167,41.5 162.833,41.5 161.5,41.5C 160.403,45.1233 158.236,48.1233 155,50.5C 153.248,54.3584 151.415,58.0251 149.5,61.5C 146.5,61.1667 145.167,62.5 145.5,65.5C 141.302,68.2178 137.468,71.5512 134,75.5C 133.798,77.2556 133.298,78.9223 132.5,80.5C 130.568,81.1455 129.401,82.4788 129,84.5C 127.989,85.3366 126.822,85.67 125.5,85.5C 125.649,86.552 125.483,87.552 125,88.5C 121.794,92.2814 118.128,95.6148 114,98.5C 113.667,100.167 113.333,101.833 113,103.5C 110.667,105.913 108.333,108.246 106,110.5C 105.517,111.448 105.351,112.448 105.5,113.5C 104.167,113.5 102.833,113.5 101.5,113.5C 101.5,114.833 101.5,116.167 101.5,117.5C 99.4884,118.014 97.4884,118.18 95.5,118C 94.1509,117.228 93.3176,116.061 93,114.5C 92.5,80.835 92.3333,47.1683 92.5,13.5C 92.9382,13.5654 93.2716,13.3988 93.5,13C 92.8333,12.6667 92.1667,12.3333 91.5,12C 93.9166,10.3268 93.9166,8.49351 91.5,6.5C 91.9766,5.06902 92.6433,3.73569 93.5,2.5C 94.451,3.32557 95.451,3.49224 96.5,3C 95.695,1.88732 95.0283,0.72065 94.5,-0.5 Z" />
        </g>
</svg>